<svg height="512" viewBox="0 0 512 512" width="512" xmlns="http://www.w3.org/2000/svg"><g><path d="m256 16c-132.55 0-240 107.45-240 240s107.45 240 240 240 240-107.45 240-240-107.45-240-240-240zm72 312h-144v-144h144z" fill="#57a4ff"/><g fill="#004fac"><path d="m431.36 80.64a248 248 0 1 0 -350.72 350.72 248 248 0 1 0 350.72-350.72zm-11.31 339.41a232 232 0 0 1 -328.1-328.1 232 232 0 0 1 328.1 328.1z"/><path d="m328 336h-144a8 8 0 0 1 -8-8v-144a8 8 0 0 1 8-8h144a8 8 0 0 1 8 8v144a8 8 0 0 1 -8 8zm-136-16h128v-128h-128z"/><path d="m176 464.7a7.973 7.973 0 0 1 -2.962-.571 224.076 224.076 0 0 1 -141.038-208.129 8 8 0 0 1 16 0 208.074 208.074 0 0 0 130.964 193.271 8 8 0 0 1 -2.964 15.429z"/><path d="m216.009 476.305a8.072 8.072 0 0 1 -1.482-.138c-5.557-1.041-11.141-2.309-16.6-3.77a8 8 0 1 1 4.138-15.455c5.062 1.355 10.245 2.533 15.4 3.5a8 8 0 0 1 -1.464 15.865z"/></g></g></svg>